PathFileType	4	(X/Y/Z)	C:/Users/opensim2020/Desktop/walking_exp_matlab/subject01_walking15_straight_04.trc																																																																																																																															
DataRate	CameraRate	NumFrames	NumMarkers	Units	OrigDataRate	OrigDataStartFrame	OrigNumFrames																																																																																																																											
100	100	8	43	mm	100	2120	105																																																																																																																											
Frame#	Time	LFHD			RFHD			LBHD			RBHD			C7			T10			CLAV			STRN			RBAK			LSHO			LUPA			LELB			LFRM			LWRA			LWRB			LFIN			RSHO			RUPA			RELB			RFRM			RWRA			RWRB			RFIN			LASI			RASI			LPSI			RPSI			LTHI			LKNE			LTIB			LANK			LHEE			LTOE			RTHI			RKNE			RTIB			RANK			RHEE			RTOE			*39			*40			*41			*42		
		X1	Y1	Z1	X2	Y2	Z2	X3	Y3	Z3	X4	Y4	Z4	X5	Y5	Z5	X6	Y6	Z6	X7	Y7	Z7	X8	Y8	Z8	X9	Y9	Z9	X10	Y10	Z10	X11	Y11	Z11	X12	Y12	Z12	X13	Y13	Z13	X14	Y14	Z14	X15	Y15	Z15	X16	Y16	Z16	X17	Y17	Z17	X18	Y18	Z18	X19	Y19	Z19	X20	Y20	Z20	X21	Y21	Z21	X22	Y22	Z22	X23	Y23	Z23	X24	Y24	Z24	X25	Y25	Z25	X26	Y26	Z26	X27	Y27	Z27	X28	Y28	Z28	X29	Y29	Z29	X30	Y30	Z30	X31	Y31	Z31	X32	Y32	Z32	X33	Y33	Z33	X34	Y34	Z34	X35	Y35	Z35	X36	Y36	Z36	X37	Y37	Z37	X38	Y38	Z38	X39	Y39	Z39	X40	Y40	Z40	X41	Y41	Z41	X42	Y42	Z42	X43	Y43	Z43
																																																																																																																																		
40	0.39	-301.06378	1657.69434	941.12897	-261.34015	1668.46362	1047.65125	-414.80032	1627.14465	979.96661	-376.21683	1637.90686	1093.80225	-457.91299	1434.04309	1023.26556	-512.56055	1144.62183	1047.59326	-315.54074	1361.93115	1026.75281	-279.33417	1205.32996	1029.72681	-524.85022	1250.43872	1109.87817	-376.65741	1391.65869	865.18335	-410.71512	1208.02295	785.62872	-431.55865	1054.9248	792.84082	-381.0209	948.97913	777.17767	-287.50449	846.85638	803.10858	-341.43063	833.08057	780.94958	-286.233	771.7616	771.70428	-378.7536	1402.74463	1175.82458	-464.7095	1217.96216	1282.19592	-476.12064	1091.59094	1288.68042	-461.19153	972.22852	1323.18579	-391.83575	847.81482	1309.65137	-435.80234	853.2793	1346.15564	-402.36118	775.20483	1354.65979	-346.0054	934.97223	949.12299	-348.0853	936.59558	1164.78491	-530.87939	946.39844	1004.31201	-528.03784	946.89148	1148.92676	-378.74533	597.15582	907.78357	-391.16425	462.58078	930.68213	-468.46161	287.9313	930.04248	-531.57739	81.78819	993.0788	-579.36945	58.36462	1048.1687	-390.47516	35.74954	984.42383	-312.93784	614.63538	1245.09229	-260.75525	463.31549	1232.51379	-372.93979	326.59625	1230.20935	-478.47147	151.32491	1179.55994	-532.82043	133.0638	1122.15698	-373.5033	57.97532	1192.55444	-275.04663	1701.44885	1024.90149	-1973.19543	1023.52405	3102.05786	-2012.47021	1022.03632	3140.72925	NaN	NaN	NaN
41	0.4	-287.12875	1657.80493	941.12524	-247.02562	1668.24194	1047.63135	-400.77277	1627.48145	980.23608	-361.83902	1637.93884	1093.98523	-444.26767	1434.22095	1022.92181	-499.47864	1144.82373	1046.98718	-301.99698	1361.90833	1026.65564	-265.92596	1205.31238	1029.46606	-511.56842	1250.36926	1108.93213	-362.77698	1392.03064	864.96783	-396.25916	1208.73645	784.79059	-415.67108	1054.93286	791.28204	-360.39542	950.85095	776.39508	-262.1557	853.71472	803.12042	-315.24408	837.09668	781.12921	-256.82251	778.4892	772.41028	-365.55872	1402.76721	1175.66858	-452.46826	1217.95459	1281.63184	-464.75067	1092.12317	1287.99744	-453.66876	972.97156	1322.9812	-388.63367	846.06653	1310.72522	-432.70169	853.27509	1346.80835	-402.20328	774.25635	1356.2832	-333.6803	934.58978	948.70251	-334.42148	937.09692	1164.27417	-517.95813	946.63702	1004.2381	-514.59357	947.0105	1148.98853	-371.82562	597.29181	907.38885	-387.12991	462.77396	930.21069	-466.37265	288.86292	930.26782	-530.82715	82.95304	993.64587	-578.72791	60.05257	1048.8042	-390.2771	35.6241	984.51843	-295.08377	616.53735	1243.99207	-240.23581	465.63968	1230.13892	-344.17438	321.8566	1229.41125	-439.33072	140.66556	1179.61279	-492.63489	118.23132	1122.51465	-327.79196	55.93979	1193.49158	-260.70605	1701.26306	1024.85779	-1973.19983	1023.45172	3101.96021	-2012.53247	1022.04095	3140.7605	NaN	NaN	NaN
42	0.41	-273.17737	1657.89722	941.07745	-232.7347	1667.93042	1047.63196	-386.76077	1627.68933	980.59955	-347.48334	1637.82324	1094.24353	-430.63513	1434.29224	1022.60938	-486.21127	1144.90576	1046.42908	-288.42032	1361.73743	1026.62378	-252.59196	1205.14441	1029.34717	-498.18179	1250.172	1108.16455	-348.85815	1392.22681	864.85669	-381.85089	1209.18262	784.10956	-399.83871	1054.89441	789.60065	-339.99057	952.87061	775.64514	-237.18576	861.00537	803.164	-289.24741	841.50696	781.38361	-227.87334	785.99353	773.0094	-352.31885	1402.59839	1175.60852	-440.43671	1217.99756	1281.16077	-453.53271	1092.59363	1287.36194	-446.01968	973.79681	1322.90991	-385.21487	844.65125	1311.76294	-429.3107	853.63293	1347.4696	-401.67847	773.40808	1357.40259	-320.62738	934.37708	948.24274	-320.67877	937.47308	1163.78186	-505.05463	946.76532	1004.41406	-501.07468	946.92365	1149.20898	-364.97348	597.38489	907.21936	-382.94641	462.91861	929.763	-464.25967	289.87186	930.46704	-530.42395	84.55743	994.09711	-578.49182	62.32893	1049.20215	-390.08163	35.52788	984.66754	-277.6358	618.33392	1243.35034	-220.3024	467.64377	1227.83093	-315.22992	317.25452	1228.96204	-399.23166	130.12669	1179.85474	-451.18213	103.79437	1123.32471	-281.96295	54.34188	1194.09216	-246.34634	1700.99036	1025.08252	-1973.19897	1023.53351	3102.0354	-2012.54248	1022.11639	3140.82349	NaN	NaN	NaN
43	0.42	-259.24283	1657.76318	941.2984	-218.45015	1667.46545	1047.67957	-372.74353	1627.71484	981.0271	-333.17432	1637.57813	1094.59924	-416.92487	1434.24841	1022.36096	-472.96381	1144.93311	1046.06824	-274.75858	1361.49158	1026.67249	-239.12029	1204.88501	1029.26831	-484.79294	1249.92041	1107.55249	-334.97119	1392.22754	864.78833	-367.54633	1209.39551	783.591	-383.98111	1054.72876	787.97595	-319.62515	955.0434	774.85443	-212.57664	868.64185	803.21472	-263.59686	846.38715	781.64526	-199.3676	794.14972	773.39954	-339.0296	1402.2124	1175.45496	-428.60626	1217.96436	1280.52808	-442.40411	1093.02051	1286.8241	-438.22098	974.67206	1322.91455	-381.30484	843.59729	1312.61133	-425.46143	854.12958	1348.23596	-400.51077	772.93671	1358.80652	-307.88892	934.03827	947.98492	-306.84323	937.60083	1163.23047	-491.98358	946.74957	1004.81042	-487.39337	946.60498	1149.56079	-357.93585	597.46112	907.08868	-378.64417	463.1163	929.49237	-462.2269	290.9758	930.64923	-529.74982	86.02531	994.34662	-577.85144	64.51644	1049.52441	-390.18744	35.56692	984.52527	-260.42068	619.67609	1242.66467	-201.29802	469.24448	1225.52515	-286.88522	312.98975	1228.49377	-358.49347	120.49794	1181.18311	-408.64984	90.21356	1125.36853	-235.95544	53.41243	1195.18933	-231.96616	1700.828	1025.26672	-1973.13867	1023.49225	3101.96558	-2012.49109	1022.12512	3140.73413	NaN	NaN	NaN
44	0.43	-245.10649	1657.33923	941.5802	-204.15515	1666.86902	1047.84521	-358.79355	1627.67175	981.50067	-318.89536	1637.32227	1095.04224	-403.16571	1434.09644	1022.24249	-459.52481	1144.76697	1045.81641	-261.10907	1361.0636	1026.78845	-225.70346	1204.47351	1029.30286	-471.32764	1249.61475	1107.11353	-320.98557	1392.0802	864.84387	-353.35715	1209.36914	783.21429	-367.98932	1054.37805	786.35541	-299.34302	957.38116	774.13763	-188.36298	876.53888	803.27509	-238.18297	851.49774	781.77789	-171.48885	802.83057	773.73132	-325.64359	1401.85217	1175.50989	-416.91959	1217.9187	1279.99902	-431.36951	1093.4397	1286.37378	-430.28149	975.53876	1322.97681	-377.362	842.63739	1313.50696	-421.14841	854.84167	1349.05371	-398.86624	772.62494	1359.77783	-294.86935	933.68585	947.62488	-292.83557	937.5293	1162.83167	-478.77802	946.53986	1005.35925	-473.82108	946.08026	1150.07043	-350.79837	597.46912	907.04718	-374.40607	463.37711	929.20642	-460.05447	292.18338	930.79285	-529.07568	87.81116	994.44952	-577.22034	66.93038	1049.66833	-389.91162	35.53433	984.70081	-243.53175	620.57416	1242.30249	-183.2934	470.59195	1223.21509	-258.71243	309.20279	1228.47314	-317.23883	111.61562	1182.73242	-365.79279	77.82636	1127.54541	-189.96405	53.25158	1195.92712	-217.63882	1700.27734	1025.44714	-1973.17334	1023.47034	3101.97144	-2012.52136	1022.10071	3140.74951	NaN	NaN	NaN
45	0.44	-231.15785	1657.02356	941.87177	-189.91484	1666.18091	1047.99951	-344.76193	1627.38098	982.02594	-304.57562	1636.74365	1095.44189	-389.4053	1433.76099	1022.26538	-446.07742	1144.49219	1045.82178	-247.42062	1360.56335	1026.97607	-212.13716	1203.90686	1029.43872	-457.7948	1249.19592	1106.87317	-307.08582	1391.80396	864.96161	-339.19281	1209.2843	782.83777	-351.71921	1054.15283	785.14508	-279.18671	959.83569	773.43646	-164.71786	884.67346	803.42706	-213.11397	857.03558	781.96429	-143.92232	811.69562	774.20343	-312.13965	1401.3335	1175.59912	-405.35446	1217.78064	1279.42017	-420.41675	1093.82813	1286.03015	-422.42157	976.55139	1323.31519	-373.52368	841.8786	1314.1626	-416.68134	855.83221	1349.69836	-396.6579	772.63184	1360.64661	-281.93948	933.21124	947.30426	-278.61401	937.28052	1162.54822	-465.49509	946.21844	1006.12836	-460.08658	945.35199	1150.70264	-343.54611	597.65747	907.06885	-369.8613	463.7247	928.8808	-457.67297	293.51227	930.91278	-527.91406	89.21931	994.56006	-576.53918	69.53198	1049.76331	-389.83557	35.51062	984.69708	-226.99832	620.96466	1241.83325	-166.28676	471.70032	1221.15527	-231.41742	306.14557	1228.73645	-275.5235	103.45981	1184.52393	-322.40704	67.00286	1130.20862	-144.47261	53.96913	1196.87817	-203.44801	1699.45935	1025.7019	-1973.03418	1023.47528	3102.04688	-2012.48401	1022.1402	3140.80469	NaN	NaN	NaN
46	0.45	-217.17004	1656.1731	942.33423	-175.65613	1665.29004	1048.32605	-330.77737	1626.94177	982.67291	-290.28827	1636.00854	1095.95886	-375.66199	1433.22339	1022.38251	-432.46539	1143.99939	1045.99512	-233.70357	1359.93176	1027.20679	-199.44275	1203.16467	1029.62732	-444.18045	1248.66772	1106.76685	-293.16037	1391.40186	865.21918	-325.04834	1208.97888	782.66162	-335.94247	1053.92822	783.29297	-259.21622	962.47552	772.79645	-141.6429	892.96124	803.45917	-188.6423	862.92468	782.01337	-117.22943	821.11847	774.43158	-298.6337	1400.74719	1175.96741	-393.77728	1217.60254	1278.92297	-409.55911	1094.12524	1285.76245	-414.2854	977.40948	1323.5365	-368.75925	841.44434	1314.93225	-411.33057	856.73657	1350.61475	-393.85428	772.72595	1361.50903	-268.81311	932.66589	946.93738	-264.19989	936.71454	1162.2251	-452.11533	945.69025	1006.98529	-444.91763	944.03961	1151.33826	-336.17111	597.88324	907.01782	-365.26318	464.33472	928.45807	-455.46512	295.01068	930.72192	-527.4187	91.46515	994.32904	-575.77411	72.32446	1049.58582	-389.85449	35.67137	984.71704	-211.01543	620.8255	1241.14185	-150.06943	472.19562	1219.12244	-205.11319	303.6459	1229.00024	-233.77544	96.99286	1186.43774	-278.38318	57.16172	1132.38672	-99.04683	56.39807	1197.69165	-189.19409	1698.70422	1026.15649	-1973.16809	1023.87805	3101.95337	-2012.56665	1022.19299	3140.86353	NaN	NaN	NaN
47	0.46	-203.39999	1655.57471	942.72095	-161.51224	1664.29309	1048.71936	-316.85254	1626.2793	983.36456	-276.12045	1635.15405	1096.68372	-361.92603	1432.48694	1022.60187	-418.78296	1143.23657	1046.40576	-219.91704	1359.18262	1027.55383	-184.97754	1202.43103	1029.85327	-430.46255	1247.91638	1106.78784	-279.31183	1390.85876	865.58759	-310.96762	1208.61877	782.50482	-319.64365	1053.43982	782.32635	-239.04668	965.3988	772.2486	-119.10267	901.30493	803.59448	-164.62865	869.0033	782.20667	-91.28549	830.80994	774.64819	-285.01743	1400.05029	1176.25256	-382.19476	1217.36719	1278.4751	-398.63834	1094.38538	1285.61047	-405.93793	978.14636	1323.83032	-363.20575	841.0708	1315.74756	-405.74487	857.59753	1351.32202	-390.43777	773.03387	1362.49377	-255.26266	932.14746	946.62476	-249.52	936.12848	1161.97974	-438.51688	945.01196	1007.90521	-430.44141	942.89502	1152.04016	-328.64557	598.13147	906.87775	-361.12595	465.31705	927.99225	-452.47131	296.65112	930.66724	-526.36115	93.4164	994.07367	-574.99512	75.2457	1049.32837	-389.99838	35.65157	984.63165	-195.68039	620.05518	1240.56226	-134.74046	472.37302	1217.39624	-179.95056	301.5228	1229.34253	-192.61281	92.14804	1188.50562	-234.65652	49.26262	1134.82544	-54.75351	60.3763	1198.41492	-175.01788	1697.76465	1026.57507	-1973.08179	1023.60767	3101.92725	-2012.50305	1022.24237	3140.86987	NaN	NaN	NaN
